<svg width="75" height="113" viewBox="0 0 75 113" fill="none" xmlns="http://www.w3.org/2000/svg">
<path d="M18.75 112.5C29.1 112.5 37.5 104.1 37.5 93.75V75H18.75C8.4 75 0 83.4 0 93.75C0 104.1 8.4 112.5 18.75 112.5Z" fill="#0ACF83"/>
<path d="M0 56.25C0 45.9 8.4 37.5 18.75 37.5H37.5V75H18.75C8.4 75 0 66.6 0 56.25Z" fill="#A259FF"/>
<path d="M0 18.75C0 8.4 8.4 0 18.75 0H37.5V37.5H18.75C8.4 37.5 0 29.1 0 18.75Z" fill="#F24E1E"/>
<path d="M37.5 0H56.25C66.6 0 75 8.4 75 18.75C75 29.1 66.6 37.5 56.25 37.5H37.5V0Z" fill="#FF7262"/>
<path d="M75 56.25C75 66.6 66.6 75 56.25 75C45.9 75 37.5 66.6 37.5 56.25C37.5 45.9 45.9 37.5 56.25 37.5C66.6 37.5 75 45.9 75 56.25Z" fill="#1ABCFE"/>
</svg>
