<?xml version="1.0" encoding="utf-8"?>
<!-- Generator: Adobe Illustrator 26.0.1, SVG Export Plug-In . SVG Version: 6.00 Build 0)  -->
<svg version="1.1" id="Layer_1" xmlns="http://www.w3.org/2000/svg" xmlns:xlink="http://www.w3.org/1999/xlink" x="0px" y="0px"
	 viewBox="0 0 48 48" style="enable-background:new 0 0 48 48;" xml:space="preserve">
<style type="text/css">
	.st0{fill:#F7DF1E;}
</style>
<g>
	<path class="st0" d="M4.9,4.9h38.2v38.2H4.9V4.9z"/>
	<path d="M15,36.8l2.9-1.8c0.6,1,1.1,1.8,2.3,1.8c1.2,0,1.9-0.5,1.9-2.3V22.4h3.6v12.2c0,3.7-2.2,5.4-5.4,5.4
		C17.5,40.1,15.8,38.6,15,36.8"/>
	<path d="M27.6,36.4l2.9-1.7c0.8,1.3,1.8,2.2,3.5,2.2c1.5,0,2.4-0.7,2.4-1.8c0-1.2-1-1.7-2.6-2.4L33,32.4c-2.6-1.1-4.3-2.5-4.3-5.4
		c0-2.7,2-4.7,5.3-4.7c2.3,0,3.9,0.8,5.1,2.9l-2.8,1.8c-0.6-1.1-1.3-1.5-2.3-1.5c-1.1,0-1.7,0.7-1.7,1.5c0,1.1,0.7,1.5,2.2,2.2
		l0.9,0.4c3,1.3,4.8,2.6,4.8,5.6c0,3.2-2.5,5-5.9,5C30.8,40.1,28.7,38.5,27.6,36.4"/>
</g>
</svg>
