<?xml version="1.0" encoding="utf-8"?>
<!-- Generator: Adobe Illustrator 26.0.1, SVG Export Plug-In . SVG Version: 6.00 Build 0)  -->
<svg version="1.1" id="Layer_1" xmlns="http://www.w3.org/2000/svg" xmlns:xlink="http://www.w3.org/1999/xlink" x="0px" y="0px"
	 viewBox="0 0 48 48" style="enable-background:new 0 0 48 48;" xml:space="preserve">
<style type="text/css">
	.st0{fill:#FFFFFF;stroke:#FFFFFF;stroke-miterlimit:10;}
	.st1{fill-rule:evenodd;clip-rule:evenodd;fill:#7952B3;}
</style>
<rect x="15.9" y="14.3" class="st0" width="18" height="20.2"/>
<path class="st1" d="M13.4,9.5c-2.1,0-3.6,1.8-3.5,3.8c0.1,1.9,0,4.3-0.6,6.3S7.6,22.9,5.9,23v1.8c1.7,0.2,2.8,1.4,3.4,3.4
	s0.7,4.4,0.6,6.3c-0.1,2,1.5,3.8,3.5,3.8h21.2c2.1,0,3.6-1.8,3.5-3.8c-0.1-1.9,0-4.3,0.6-6.3s1.7-3.3,3.4-3.4V23
	c-1.7-0.2-2.7-1.4-3.4-3.4c-0.6-2-0.7-4.4-0.6-6.3c0.1-2-1.5-3.8-3.5-3.8L13.4,9.5L13.4,9.5z M30.5,27.3c0,2.7-2,4.3-5.4,4.3h-5.7
	c-0.3,0-0.6-0.3-0.6-0.6l0,0V16.9c0-0.3,0.3-0.6,0.6-0.6h5.7c2.8,0,4.6,1.5,4.6,3.8c0,1.6-1.2,3.1-2.8,3.3v0.1
	C29,23.8,30.5,25.3,30.5,27.3L30.5,27.3z M24.5,18.3h-3.3v4.6H24c2.1,0,3.3-0.9,3.3-2.4C27.2,19,26.2,18.3,24.5,18.3L24.5,18.3z
	 M21.2,24.7v5.1h3.4c2.2,0,3.4-0.9,3.4-2.5s-1.2-2.5-3.5-2.5L21.2,24.7L21.2,24.7z"/>
</svg>
